<svg width="11" height="21" viewBox="0 0 11 21" fill="none" xmlns="http://www.w3.org/2000/svg">
<path d="M0.603398 11.1083H2.73803V19.8962C2.73803 20.0697 2.87862 20.2103 3.05212 20.2103H6.67146C6.84497 20.2103 6.98555 20.0697 6.98555 19.8962V11.1497H9.43949C9.59905 11.1497 9.73329 11.0299 9.75151 10.8714L10.1242 7.63616C10.1344 7.54715 10.1062 7.45801 10.0467 7.39123C9.98708 7.32439 9.90177 7.28614 9.81225 7.28614H6.98568V5.25811C6.98568 4.64676 7.31485 4.33675 7.96414 4.33675C8.05667 4.33675 9.81225 4.33675 9.81225 4.33675C9.98576 4.33675 10.1263 4.1961 10.1263 4.02266V1.05299C10.1263 0.879484 9.98576 0.738897 9.81225 0.738897H7.26528C7.24732 0.738017 7.20743 0.736572 7.14863 0.736572C6.7067 0.736572 5.17061 0.823324 3.95721 1.93961C2.61277 3.17662 2.79965 4.65776 2.84432 4.91456V7.28607H0.603398C0.429894 7.28607 0.289307 7.42666 0.289307 7.60017V10.7941C0.289307 10.9676 0.429894 11.1083 0.603398 11.1083Z" fill="white"/>
</svg>
