<svg width="21" height="21" viewBox="0 0 21 21" fill="none" xmlns="http://www.w3.org/2000/svg">
<path d="M14.8364 0.736572H6.11073C3.14756 0.736572 0.736816 3.14743 0.736816 6.11061V14.8362C0.736816 17.7995 3.14756 20.2103 6.11073 20.2103H14.8364C17.7998 20.2103 20.2105 17.7994 20.2105 14.8362V6.11061C20.2106 3.14743 17.7998 0.736572 14.8364 0.736572ZM18.4828 14.8362C18.4828 16.8468 16.8471 18.4825 14.8365 18.4825H6.11073C4.10027 18.4826 2.46462 16.8468 2.46462 14.8362V6.11061C2.46462 4.10014 4.10027 2.46437 6.11073 2.46437H14.8364C16.8469 2.46437 18.4827 4.10014 18.4827 6.11061V14.8362H18.4828Z" fill="white"/>
<path d="M10.4734 5.45605C7.70654 5.45605 5.45557 7.70703 5.45557 10.4739C5.45557 13.2407 7.70654 15.4916 10.4734 15.4916C13.2403 15.4916 15.4913 13.2407 15.4913 10.4739C15.4913 7.70703 13.2403 5.45605 10.4734 5.45605ZM10.4734 13.7637C8.65937 13.7637 7.18337 12.2879 7.18337 10.4738C7.18337 8.65963 8.65925 7.18374 10.4734 7.18374C12.2876 7.18374 13.7635 8.65963 13.7635 10.4738C13.7635 12.2879 12.2875 13.7637 10.4734 13.7637Z" fill="white"/>
<path d="M15.7019 3.99072C15.369 3.99072 15.042 4.12549 14.8069 4.36162C14.5706 4.5966 14.4348 4.92373 14.4348 5.25778C14.4348 5.59078 14.5707 5.9178 14.8069 6.15393C15.0418 6.38891 15.369 6.52483 15.7019 6.52483C16.0359 6.52483 16.3619 6.38891 16.598 6.15393C16.8342 5.9178 16.9689 5.59067 16.9689 5.25778C16.9689 4.92373 16.8342 4.5966 16.598 4.36162C16.363 4.12549 16.0359 3.99072 15.7019 3.99072Z" fill="white"/>
</svg>
