<svg width="21" height="21" viewBox="0 0 21 21" fill="none" xmlns="http://www.w3.org/2000/svg">
<path d="M10.5286 0.736572H10.5237C5.15506 0.736572 0.789307 5.10355 0.789307 10.4734C0.789307 12.6033 1.47575 14.5775 2.64296 16.1804L1.4295 19.7977L5.1721 18.6012C6.71174 19.6212 8.54835 20.2103 10.5286 20.2103C15.8972 20.2103 20.263 15.8421 20.263 10.4734C20.263 5.10476 15.8972 0.736572 10.5286 0.736572ZM16.1942 14.4862C15.9593 15.1495 15.027 15.6997 14.2834 15.8603C13.7746 15.9686 13.1101 16.0551 10.873 15.1276C8.01161 13.9422 6.16891 11.0345 6.02529 10.8458C5.88776 10.6572 4.86904 9.30621 4.86904 7.90897C4.86904 6.51174 5.57862 5.83138 5.86464 5.53927C6.09954 5.2995 6.48779 5.18996 6.86023 5.18996C6.98072 5.18996 7.08904 5.19605 7.18641 5.20091C7.47243 5.21309 7.61605 5.23012 7.8047 5.68167C8.0396 6.24763 8.61164 7.64486 8.6798 7.78848C8.74918 7.9321 8.81855 8.12684 8.72118 8.31549C8.6299 8.51022 8.54957 8.59664 8.40595 8.76216C8.26233 8.92769 8.12602 9.05427 7.9824 9.23197C7.85095 9.38654 7.70246 9.55207 7.86799 9.83809C8.03352 10.118 8.60556 11.0515 9.44779 11.8013C10.5347 12.7689 11.4159 13.078 11.7311 13.2095C11.966 13.3068 12.2459 13.2837 12.4175 13.1011C12.6354 12.8662 12.9044 12.4768 13.1782 12.0934C13.373 11.8183 13.6188 11.7842 13.8768 11.8816C14.1397 11.9729 15.5309 12.6606 15.8169 12.803C16.1029 12.9466 16.2916 13.0147 16.361 13.1352C16.4291 13.2557 16.4291 13.8217 16.1942 14.4862Z" fill="white"/>
</svg>
