<svg width="24" height="14" viewBox="0 0 24 14" fill="none" xmlns="http://www.w3.org/2000/svg">
<path fill-rule="evenodd" clip-rule="evenodd" d="M19.9016 8.91243C20.6626 9.65539 21.4658 10.3544 22.1483 11.1723C22.4498 11.5358 22.7352 11.9108 22.9536 12.3326C23.263 12.9322 22.9828 13.592 22.4451 13.6278L19.103 13.6263C18.2411 13.6979 17.5534 13.3508 16.9752 12.7615C16.5125 12.2902 16.084 11.7886 15.6391 11.3013C15.4567 11.1022 15.2657 10.9148 15.0377 10.7667C14.5814 10.4706 14.1854 10.5612 13.9247 11.0371C13.6591 11.5211 13.5989 12.057 13.5728 12.5963C13.537 13.3833 13.2991 13.5902 12.5086 13.6263C10.8192 13.7059 9.21582 13.4503 7.72635 12.5981C6.41318 11.8467 5.39488 10.7861 4.50855 9.5853C2.78286 7.24711 1.46132 4.67783 0.273574 2.03656C0.00622176 1.44148 0.201742 1.12205 0.858327 1.11074C1.94862 1.08956 3.03875 1.09107 4.13032 1.10924C4.57345 1.11572 4.8668 1.36988 5.0379 1.78851C5.62778 3.23893 6.34957 4.61889 7.25556 5.89799C7.49684 6.23853 7.74286 6.57907 8.0932 6.81876C8.48077 7.08415 8.77586 6.99619 8.95819 6.56445C9.07389 6.29069 9.12454 5.99582 9.15062 5.70262C9.237 4.69388 9.24838 3.68688 9.09688 2.68169C9.00387 2.05435 8.65052 1.64824 8.02453 1.52952C7.7051 1.469 7.75266 1.35013 7.90733 1.1678C8.17596 0.85334 8.42861 0.657593 8.93226 0.657593H12.7093C13.304 0.77495 13.436 1.04208 13.5174 1.6404L13.5207 5.83595C13.5142 6.06758 13.6364 6.75492 14.0536 6.90823C14.3875 7.01737 14.6076 6.75024 14.8079 6.53852C15.7123 5.5787 16.3577 4.44439 16.9343 3.26984C17.1902 2.75337 17.4102 2.21701 17.6234 1.6811C17.7814 1.28343 18.0293 1.08775 18.4773 1.09642L22.1125 1.09966C22.2203 1.09966 22.3294 1.10125 22.4337 1.11911C23.0463 1.2235 23.2142 1.48701 23.025 2.08518C22.7269 3.02367 22.1469 3.80575 21.5798 4.59145C20.9735 5.43029 20.3252 6.24041 19.724 7.08423C19.1716 7.85478 19.2155 8.24318 19.9016 8.91243Z" fill="white"/>
</svg>
