<svg width="68" height="31" viewBox="0 0 68 31" fill="none" xmlns="http://www.w3.org/2000/svg">
<path d="M26.6018 30.9213C24.775 30.4505 23.4855 28.7824 23.4617 26.859C23.4494 25.8602 23.6321 25.2019 24.1329 24.4407C25.5878 22.2296 28.6796 21.9195 30.5196 23.8001C31.3897 24.6894 31.6357 25.3492 31.6372 26.7974C31.6384 27.9083 31.6055 28.0933 31.3028 28.6803C30.603 30.0376 29.3165 30.9007 27.861 30.9893C27.4182 31.0162 26.8515 30.9858 26.6018 30.9213ZM28.3081 27.89C28.94 27.438 29.0444 26.3929 28.509 25.8791C27.5765 24.9842 26.1664 25.6546 26.3185 26.9206C26.434 27.8822 27.5554 28.4286 28.3081 27.89ZM54.9605 30.8854C53.7118 30.5242 52.6161 29.4762 52.1455 28.193C51.8475 27.3804 51.9219 25.7754 52.2934 25.0018C52.7325 24.0875 53.346 23.4558 54.2235 23.0144C54.9444 22.6517 55.1387 22.6088 56.0594 22.6088C56.9796 22.6088 57.1748 22.6519 57.895 23.0137C59.3764 23.758 60.1861 25.0975 60.1821 26.7974C60.1779 28.5705 59.2786 29.9722 57.6827 30.6933C56.9921 31.0054 55.6923 31.0971 54.9605 30.8854ZM56.9329 27.7315C57.271 27.4228 57.3267 27.2907 57.3267 26.7974C57.3267 26.3041 57.271 26.172 56.9329 25.8633C56.6379 25.5941 56.4188 25.5039 56.0604 25.5039C55.702 25.5039 55.4829 25.5941 55.188 25.8633C54.8498 26.172 54.7941 26.3041 54.7941 26.7974C54.7941 27.2907 54.8498 27.4228 55.188 27.7315C55.4829 28.0007 55.702 28.0909 56.0604 28.0909C56.4188 28.0909 56.6379 28.0007 56.9329 27.7315ZM15.1767 23.5963V21.4385H14.7488C13.786 21.4385 13.3656 20.1897 14.082 19.4579L14.4345 19.0978H18.2487C22.4381 19.0978 22.6061 19.0715 22.8895 18.3726C23.073 17.92 22.9637 17.3514 22.6346 17.0471C22.4036 16.8334 22.02 16.8147 16.6743 16.7571L10.9609 16.6955L10.6294 16.3567C10.1666 15.8839 10.1667 15.1664 10.6294 14.6936L10.961 14.3548L20.6772 14.2932L30.3934 14.2316L30.6844 13.886C31.0692 13.4289 31.0692 12.8168 30.6844 12.3598L30.3934 12.0141L15.492 11.9525L0.590604 11.8909L0.336975 11.6318C0.197481 11.4893 0.054627 11.154 0.0195246 10.8866C-0.0333853 10.4837 0.011087 10.3333 0.27956 10.0074L0.603417 9.61426L18.3796 9.58225L36.1558 9.55025L36.4874 9.21147C36.9503 8.73866 36.9503 8.02117 36.4875 7.54835L36.1558 7.20956L22.0181 7.14797C14.2423 7.11409 7.80694 7.03802 7.71726 6.97893C7.39779 6.76844 7.19435 6.05148 7.33264 5.62346C7.609 4.76807 7.12288 4.80728 17.4509 4.80728C23.8752 4.80728 26.8317 4.76602 27.0303 4.67359C27.7612 4.33342 27.9012 3.22042 27.2763 2.71832C26.9705 2.47261 26.8221 2.4666 21.066 2.4666C14.7857 2.4666 14.5226 2.44363 14.2216 1.86916C13.9951 1.43696 14.067 0.784413 14.3823 0.409968L14.6734 0.0643153L30.4223 0.0321576L46.1711 0V10.9656V21.9312H46.8947H47.6184V13.6772V5.42325H52.8557H58.0931L58.3377 5.7408C58.5529 6.02033 60.54 8.15174 65.0475 12.9381C65.7813 13.7173 66.7451 14.7429 67.1893 15.2172L67.997 16.0795L67.9985 20.9149L68 25.7502L64.7739 25.7501L61.5478 25.75L61.3413 25.0319C61.0517 24.0251 60.284 22.9091 59.4302 22.2534C57.1732 20.5203 54.1413 20.7369 52.1475 22.7736C51.4521 23.484 50.8199 24.5889 50.6833 25.3328L50.6065 25.7502H41.8295H33.0525L32.9758 25.3327C32.7353 24.023 31.3298 22.2952 29.9708 21.6385C26.8935 20.1514 23.2115 21.8433 22.2291 25.1959L22.0847 25.6887L18.6307 25.7213L15.1767 25.754V23.5963ZM61.3479 11.8601C59.1398 9.50559 57.2774 7.53842 57.2093 7.48864C57.1412 7.43886 55.4981 7.39728 53.558 7.39624L50.0304 7.39436V11.7677V16.1411H57.6965H65.3626L61.3479 11.8601Z" fill="#F88500"/>
</svg>
