<svg width="55" height="38" viewBox="0 0 55 38" fill="none" xmlns="http://www.w3.org/2000/svg">
<path d="M47.7712 30.5398C46.0423 30.8008 44.2809 30.7545 42.5681 30.403L41.976 30.2723L42.859 28.7205C44.2969 26.2521 45.5256 23.6675 46.532 20.994C47.5257 18.4352 48.2706 15.7865 48.7562 13.0849C49.0037 11.8111 49.1732 10.5234 49.2637 9.22897C49.2452 9.23646 49.1196 9.76929 48.9867 10.4119C47.5508 17.2691 44.3505 24.3129 40.7121 28.6388C40.5104 28.9161 40.2696 29.1626 39.9973 29.3709C39.1134 28.3993 38.3235 27.3461 37.6382 26.2256C36.8924 24.9573 36.3249 23.5922 35.9518 22.1689C35.6999 21.0126 35.6934 19.8163 35.9328 18.6573C36.1722 17.4983 36.652 16.4024 37.3414 15.4404C38.5019 13.7036 39.9301 12.1615 41.573 10.8716C45.6148 7.40508 46.2547 6.76258 47.3402 5.09015C48.1254 3.84073 48.6628 2.45187 48.923 0.999341C48.954 0.74059 49.0081 0.485153 49.0849 0.236126C49.6248 0.936124 50.0954 1.68694 50.49 2.478C51.2279 3.87235 51.857 5.32154 52.3719 6.81268C55.3993 15.5606 55.3852 23.8063 52.3352 27.7306C51.8234 28.399 51.2038 28.9774 50.5018 29.442C49.6512 29.9416 48.7309 30.3116 47.7712 30.5398ZM30.8104 37.2727C25.8544 38.7488 21.3216 37.6228 17.1512 33.8784C15.9044 32.7952 14.812 31.5463 13.9043 30.1664C12.7952 28.4267 11.8506 26.5874 11.0827 24.6724C10.4231 22.9626 9.57562 21.3314 8.55579 19.8088C6.85839 17.4682 4.62881 16.0955 1.19434 15.2883C0.897609 15.2293 0.605806 15.1478 0.321462 15.0445C0.716199 14.6383 1.15678 14.2794 1.63434 13.9748C3.5218 12.7762 5.5811 11.8725 7.74115 11.295C13.7803 9.76208 20.1108 9.79593 26.1332 11.3934C29.1667 12.1663 32.0263 13.5068 34.5608 15.344L35.0881 15.7522L34.7863 16.4199C34.2568 17.4512 33.9468 18.581 33.876 19.7381C33.8052 20.8952 33.975 22.0545 34.3747 23.1426C34.9401 24.6493 35.751 26.0521 36.7745 27.2939C36.9643 27.5137 37.1397 27.7454 37.2997 27.9877C37.1464 27.895 37.0049 27.7842 36.8783 27.6575C32.2886 23.4528 26.7749 20.3856 20.7819 18.7033C19.8154 18.4467 18.4642 18.1427 18.4076 18.1656C18.3891 18.1731 19.0598 18.4985 19.8986 18.8876C23.6579 20.59 27.2011 22.7337 30.4535 25.2737C31.8436 26.4094 33.1608 27.6315 34.3974 28.9328C35.5312 30.1486 36.5052 31.5042 37.2956 32.9668L37.4977 33.4244L36.9654 33.8768C35.1353 35.3706 33.0499 36.5209 30.81 37.2718L30.8104 37.2727ZM37.4521 28.1968C37.4098 28.1643 37.3841 28.1165 37.3951 28.0904C37.4062 28.0644 37.4525 28.0856 37.4994 28.1378C37.5971 28.2461 37.5663 28.2845 37.453 28.1965L37.4521 28.1968Z" fill="#FF8900"/>
</svg>
