<svg width="40" height="40" viewBox="0 0 40 40" fill="none" xmlns="http://www.w3.org/2000/svg">
<path d="M19.0527 39.5529C17.4895 38.5959 0.591049 27.4456 0.306188 27.1833C-0.0532554 26.8522 -0.101326 26.0869 0.209396 25.6422C0.455513 25.29 1.20859 25.1201 1.59786 25.3289C1.7518 25.4115 5.92715 28.1409 10.8764 31.3944C15.8257 34.6478 19.9313 37.3097 20 37.3097C20.0687 37.3097 24.1743 34.6478 29.1236 31.3944C34.0729 28.1409 38.2482 25.4115 38.4022 25.3289C38.7914 25.1201 39.5445 25.29 39.7906 25.6422C40.1013 26.0868 40.0533 26.8521 39.6938 27.1838C39.4094 27.4462 22.516 38.5927 20.9473 39.553C20.5457 39.7988 20.1194 40 20 40C19.8806 40 19.4543 39.7988 19.0527 39.5529ZM19.2988 33.1991C18.5686 32.8019 18.4327 31.9226 19.0118 31.3421C19.7816 30.5705 21.342 31.0719 21.342 32.0908C21.342 32.627 21.1401 32.9639 20.6737 33.2056C20.1863 33.4583 19.7717 33.4563 19.2988 33.1991V33.1991ZM15.8919 30.9323C14.9403 30.5102 14.6206 29.6317 15.1658 28.9369C15.5153 28.4916 15.9808 28.4177 16.6227 28.7057C17.5729 29.1322 17.8643 29.9859 17.2825 30.6387C16.8996 31.0681 16.4243 31.1685 15.8919 30.9323ZM23.1345 30.9886C22.4724 30.7208 22.2206 29.8468 22.6347 29.2542C22.916 28.8516 23.8042 28.4522 24.2349 28.5348C24.6855 28.6211 25.0996 29.1802 25.0996 29.7024C25.0996 30.2048 24.7158 30.6681 24.0784 30.9351C23.5729 31.1468 23.5313 31.1492 23.1345 30.9886ZM12.0151 28.4093C11.4063 28.0718 11.1428 27.7148 11.1428 27.2276C11.1428 25.8996 12.641 25.6117 13.5466 26.7657C13.9198 27.2413 13.8999 27.6514 13.4794 28.1524C13.1062 28.5969 12.5345 28.6972 12.0151 28.4093ZM26.5206 28.1524C26.1001 27.6514 26.0802 27.2413 26.4535 26.7657C27.0788 25.9689 28.2032 25.807 28.652 26.4493C28.963 26.8942 28.9148 27.6597 28.5553 27.9879C27.7705 28.7044 27.034 28.7639 26.5206 28.1524ZM19.4122 26.9315C18.3492 26.3126 0.302843 14.3768 0.171988 14.2061C-0.107333 13.8417 -0.0349988 13.0458 0.306188 12.7295C0.47226 12.5755 4.86563 9.6484 10.0692 6.2248C17.9989 1.00761 19.6063 6.18798e-05 20 2.97944e-09C20.3938 -6.3219e-05 21.9989 1.00599 29.9308 6.22428C35.1344 9.64768 39.5278 12.5748 39.6938 12.729C40.035 13.0458 40.1073 13.8417 39.828 14.2061C39.6847 14.3933 21.2931 26.5463 20.5503 26.9448C20.2137 27.1254 19.7356 27.1198 19.4122 26.9315V26.9315ZM8.25753 25.9439C7.65702 25.6299 7.38523 25.2342 7.38523 24.6739C7.38523 23.6962 8.39084 23.2757 9.33304 23.8594C10.7371 24.7292 9.71674 26.7068 8.25753 25.9439ZM30.6352 26.0062C30.4691 25.9393 30.2335 25.6751 30.1117 25.4191C29.9244 25.0253 29.9165 24.8902 30.0605 24.5416C30.4257 23.658 31.7502 23.2894 32.3315 23.9096C32.9219 24.5395 32.6515 25.5018 31.7658 25.9231C31.2456 26.1705 31.0743 26.1831 30.6352 26.0062ZM4.20564 23.3095C3.95727 23.1501 3.71284 22.8391 3.62418 22.5699C3.49468 22.1766 3.5098 22.039 3.72268 21.6737C4.06478 21.0865 4.64085 20.9282 5.29795 21.2408C6.22156 21.6801 6.50536 22.6166 5.908 23.254C5.51416 23.6742 4.80942 23.6972 4.20564 23.3095ZM34.092 23.254C33.4947 22.6166 33.7785 21.6801 34.7021 21.2408C35.3592 20.9282 35.9352 21.0865 36.2773 21.6737C36.4907 22.0399 36.5055 22.1761 36.375 22.5725C36.0654 23.5127 34.7129 23.9165 34.092 23.254ZM0.645062 20.9649C0.186969 20.7074 0.00423853 20.3717 0.00423853 19.7878C0.00423853 18.8027 1.17872 18.3964 2.00694 19.0949C2.78311 19.7495 2.46328 20.9712 1.48044 21.106C1.1965 21.145 0.866115 21.0892 0.645062 20.9649ZM38.1593 21.0325C37.7789 20.8789 37.5802 20.4939 37.5802 19.9108C37.5802 19.5537 37.6778 19.3608 37.9931 19.0949C38.8305 18.3887 39.9958 18.8028 39.9958 19.8067C39.9958 20.3854 39.8039 20.7178 39.3275 20.9648C38.8909 21.191 38.5945 21.2082 38.1593 21.0325Z" fill="#F88500"/>
</svg>
