<svg width="40" height="41" viewBox="0 0 40 41" fill="none" xmlns="http://www.w3.org/2000/svg">
<path d="M0.204544 40.7901L0 40.5802V29.7132V18.8462L0.204544 18.6364C0.338846 18.4986 0.503276 18.4265 0.683345 18.4265C0.936455 18.4265 1.76868 19.2587 11.4788 29.222C21.1889 39.1852 22 40.0391 22 40.2988C22 40.4836 21.9298 40.6523 21.7955 40.7901L21.5909 41H11H0.409094L0.204544 40.7901ZM19.6667 39.6104C19.6667 39.5985 15.5417 35.3565 10.5 30.1835L1.33333 20.7782V30.205V39.6319H10.5C15.5417 39.6319 19.6667 39.6222 19.6667 39.6104ZM4.20455 36.6858L4 36.476V32.7915V29.1069L4.20455 28.8971C4.33863 28.7595 4.50332 28.6872 4.68262 28.6872C4.9319 28.6872 5.2684 29.0076 8.47808 32.3009C11.6878 35.5943 12 35.9395 12 36.1953C12 36.3793 11.9295 36.5483 11.7955 36.6858L11.5909 36.8957H8.00001H4.4091L4.20455 36.6858ZM9.66668 35.5056C9.66668 35.4935 8.69168 34.4838 7.50001 33.2617L5.33334 31.0398V33.2837V35.5276H7.50001C8.69168 35.5276 9.66668 35.5177 9.66668 35.5056ZM20.6667 36.2145V35.5276L26.1459 35.5271C29.8848 35.5268 31.7309 35.4967 31.9584 35.4322C32.4065 35.3053 33.1167 34.5766 33.2404 34.1168C33.291 33.9286 33.3326 33.5535 33.3329 33.2831L33.3334 32.7915H25.5379H17.7425L17.5379 32.5816L17.3334 32.3717V29.3712V26.3707L17.5379 26.1609L17.7425 25.951H25.5379H33.3334V18.9191V11.8873L32.0001 13.2534L30.6667 14.6195V19.3913V24.1631L30.4622 24.373L30.2576 24.5829H22.6667H15.0758L14.8712 24.373C14.6692 24.1657 14.6667 24.1444 14.6667 22.6202V21.0772H14.3843C13.9607 21.0772 12.7018 20.6807 12.0417 20.3394C10.1201 19.3459 8.75604 17.5726 8.20147 15.3473C7.95138 14.3438 7.98927 12.6423 8.28413 11.6355C8.6852 10.2661 9.25468 9.26636 10.164 8.33523C11.1315 7.34453 12.3163 6.67026 13.7198 6.31152C14.5699 6.09422 16.2506 6.11733 17.125 6.35836C19.1832 6.92565 20.92 8.35397 21.8437 10.239L22.1685 10.902H24.6055H27.0425L30.1879 7.67372L33.3334 4.44547L33.3329 3.76184C33.3326 3.38584 33.291 2.9243 33.2404 2.73618C33.1167 2.27635 32.4065 1.54762 31.9584 1.4207C31.4873 1.28727 8.51278 1.28727 8.04167 1.4207C7.59352 1.54762 6.88331 2.27635 6.75961 2.73618C6.69518 2.97567 6.66746 5.78889 6.66714 12.1204L6.66664 21.1627H5.99817H5.32972L5.35234 11.8594L5.37497 2.5562C5.86136 0.91483 6.70703 0.288505 7.87497 0H20H32.125L32.6867 0.273031C33.6623 0.747237 34.4373 1.75016 34.5613 2.6992C34.5855 2.88414 34.6243 3.03545 34.6475 3.03545C34.6708 3.03545 34.9879 2.74319 35.3523 2.38598C36.2064 1.54871 36.5817 1.36829 37.4583 1.37344C38.2364 1.37801 38.7517 1.60034 39.262 2.15163C39.7775 2.7085 39.9491 3.15079 39.9533 3.93326C39.9593 5.05944 39.9253 5.10828 37.1215 7.99554L34.6667 10.5235V18.2372V25.951H37.1288H39.5909L39.7955 26.1609L40 26.3707V29.3712V32.3717L39.7955 32.5816L39.5909 32.7915H37.1403H34.6898L34.6467 33.5662C34.6097 34.2333 34.5619 34.4277 34.3031 34.9649C33.9396 35.7197 33.4484 36.2097 32.6816 36.5824L32.125 36.853L26.3958 36.8772L20.6667 36.9013L20.6667 36.2145ZM38.6667 29.3712V27.3191H38H37.3334V28.0031V28.6872H36.6667H36V28.0031V27.3191H35.3334H34.6667V28.0031V28.6872H34H33.3334V28.0031V27.3191H32.6667H32V28.0031V28.6872H31.3334H30.6667V28.0031V27.3191H30H29.3334V28.0031V28.6872H28.6667H28V28.0031V27.3191H27.3334H26.6667V28.0031V28.6872H26H25.3334V28.0031V27.3191H24.6667H24V28.0031V28.6872H23.3334H22.6667V28.0031V27.3191H22H21.3334V28.0031V28.6872H20.6667H20V28.0031V27.3191H19.3334H18.6667V29.3712V31.4234H28.6667H38.6667V29.3712ZM29.3334 19.6038V15.9928L28.5093 16.8352L27.6851 17.6776L25.8331 18.0589C24.8145 18.2686 23.892 18.4172 23.7833 18.3892C23.6745 18.3612 23.5216 18.2383 23.4436 18.116C23.3072 17.9026 23.316 17.8179 23.6681 15.9584L24.0345 14.0229L24.8664 13.1465L25.6983 12.2701H24.1394H22.5804L22.6332 13.1893C22.8428 16.8375 20.557 20.0058 17.0365 20.9467C16.768 21.0185 16.425 21.0772 16.2742 21.0772H16V22.146V23.2148H22.6667H29.3334V19.6038ZM14.9051 11.0654C15.09 10.9118 15.2693 10.902 17.8932 10.902C20.3564 10.902 20.6788 10.8867 20.6359 10.772C20.5075 10.4287 19.8798 9.60357 19.3876 9.13112C18.7448 8.51419 17.9861 8.05775 17.0972 7.75321C16.5376 7.56148 16.3187 7.53434 15.3333 7.53451C14.3343 7.53468 14.1337 7.56039 13.5417 7.76417C11.8861 8.33402 10.7072 9.37836 9.95111 10.9447C9.10821 12.6911 9.11668 14.5343 9.97607 16.3716C10.3011 17.0664 10.4625 17.2911 11.1149 17.9562C12.0828 18.9431 13.0583 19.4821 14.2563 19.692L14.625 19.7566L14.6667 15.4927L14.7083 11.2288L14.9051 11.0654ZM17.3875 19.4143C18.2148 19.1062 18.8202 18.6965 19.5419 17.9562C20.3029 17.1757 20.7408 16.4598 21.0589 15.4765C21.2508 14.8831 21.2809 14.6453 21.2859 13.6809C21.2891 13.0696 21.2647 12.502 21.2318 12.4197C21.1766 12.2817 20.9704 12.2701 18.586 12.2701H16V16.0207V19.7712L16.4299 19.6911C16.6664 19.647 17.0973 19.5224 17.3875 19.4143ZM25.4487 16.7561C25.6614 16.7234 25.852 16.6691 25.8723 16.6354C25.8926 16.6017 25.7278 16.3908 25.5061 16.1668C25.2845 15.9427 25.0848 15.792 25.0625 15.8317C25.0402 15.8715 24.9962 16.058 24.9649 16.2461C24.9335 16.4342 24.8867 16.6613 24.861 16.7507C24.8266 16.8699 24.8472 16.9002 24.9381 16.8644C25.0063 16.8376 25.2361 16.7889 25.4487 16.7561ZM32.2082 11.0731L37.0409 6.11391L36.1869 5.23766L35.333 4.36141L30.4798 9.34105L25.6267 14.3207L26.4576 15.1765C26.9146 15.6472 27.3081 16.0323 27.3321 16.0323C27.356 16.0323 29.5503 13.8007 32.2082 11.0731ZM38.3235 4.78675C38.7953 4.23539 38.7883 3.54786 38.3058 3.0528C37.7994 2.53314 37.0323 2.57797 36.504 3.1581L36.2997 3.38251L37.1275 4.23505C37.5827 4.70395 37.9802 5.08759 38.0107 5.08759C38.0412 5.08759 38.1819 4.95221 38.3235 4.78675ZM8.00001 3.37748V2.69343H8.66667H9.33334V3.37748V4.06152H8.66667H8.00001V3.37748ZM10.6667 3.37748V2.69343H11.3333H12V3.37748V4.06152H11.3333H10.6667V3.37748ZM13.3333 3.37748V2.69343H14H14.6667V3.37748V4.06152H14H13.3333V3.37748Z" fill="#F88500"/>
</svg>
