<svg width="52" height="33" viewBox="0 0 52 33" fill="none" xmlns="http://www.w3.org/2000/svg">
<path d="M11.121 32.6762C11.1434 32.4981 11.2005 32.2009 11.2477 32.0158C11.2949 31.8307 11.3336 31.5895 11.3336 31.48C11.3336 31.3704 11.3616 31.2637 11.3959 31.2427C11.4301 31.2218 11.4581 31.0722 11.4581 30.9103C11.4581 30.7484 11.4791 30.5954 11.5048 30.5703C11.547 30.5291 11.655 29.9813 11.749 29.3316C11.7686 29.1959 11.8044 29.0711 11.8286 29.0541C11.8527 29.0372 11.9061 28.8014 11.9471 28.5301C11.9881 28.2588 12.0368 27.9398 12.0552 27.8211C12.0736 27.7024 12.1124 27.5499 12.1414 27.482C12.1914 27.3656 12.3081 26.7548 12.3713 26.2799C12.3871 26.1612 12.4241 26.0086 12.4534 25.9408C12.4828 25.873 12.5239 25.7204 12.5448 25.6017C12.6762 24.8528 12.7405 24.5583 12.7816 24.5176C12.8072 24.4922 12.828 24.4137 12.8277 24.343C12.8269 24.1586 13.0374 23.3553 13.0929 23.3309C13.1186 23.3196 13.1396 23.2433 13.1396 23.1614C13.1396 23.0794 13.1646 23.0124 13.1951 23.0124C13.2257 23.0124 13.2682 22.9431 13.2897 22.8583C13.3112 22.7735 13.3563 22.7042 13.3899 22.7042C13.4235 22.7042 13.451 22.6752 13.451 22.6398C13.451 22.5813 13.8051 22.1669 13.9966 22.0014C14.0397 21.9641 14.1836 21.8295 14.3162 21.7023C14.4488 21.5752 14.5758 21.4712 14.5985 21.4712C14.6211 21.4712 14.7152 21.4018 14.8076 21.317C14.8999 21.2323 15.0084 21.1629 15.0488 21.1629C15.0891 21.1629 15.1314 21.1392 15.1428 21.1102C15.1664 21.0503 16.0335 20.5165 16.4091 20.3306C16.5461 20.2628 16.6722 20.1935 16.6893 20.1765C16.7241 20.142 17.1308 19.9465 17.966 19.5624C18.2743 19.4207 18.5752 19.2789 18.6346 19.2474C18.6941 19.2159 18.7852 19.1901 18.837 19.1901C18.8889 19.1901 18.9313 19.1624 18.9313 19.1284C18.9313 19.0945 18.9671 19.0668 19.0108 19.0668C19.0969 19.0668 19.6021 18.8153 20.0523 18.5484C20.2064 18.457 20.4096 18.3499 20.5038 18.3103C20.598 18.2707 20.675 18.2166 20.675 18.1902C20.675 18.1637 20.7176 18.142 20.7697 18.142C20.8217 18.142 20.9753 18.0727 21.111 17.9879C21.2466 17.9031 21.3989 17.8338 21.4493 17.8338C21.5662 17.8338 21.6707 17.4676 21.6711 17.0563L21.6717 16.7413L22.2322 16.6591L22.7927 16.5769V16.2219C22.7927 15.7365 22.6804 15.2445 22.5695 15.2445C22.521 15.2445 22.4813 15.2167 22.4813 15.1828C22.4813 15.1489 22.453 15.1212 22.4185 15.1212C22.3209 15.1212 21.9831 14.8024 21.9831 14.7103C21.9831 14.665 21.9619 14.628 21.936 14.628C21.8559 14.628 21.5471 13.8661 21.5471 13.6685C21.5471 13.5899 21.5191 13.5084 21.4849 13.4874C21.4506 13.4665 21.4226 13.2868 21.4226 13.0881C21.4226 12.6539 21.3822 12.5319 21.2387 12.5319C21.0601 12.5319 20.7484 12.3504 20.6234 12.1736C20.4796 11.9702 20.4329 11.7833 20.3621 11.1278C20.3318 10.8472 20.2865 10.5847 20.2613 10.5444C20.2144 10.4693 20.1333 10.0957 20.0726 9.6752C20.0527 9.53794 20.0675 9.40986 20.1077 9.37003C20.1459 9.33228 20.1771 9.25709 20.1771 9.20294C20.1771 9.14878 20.2892 8.99612 20.4262 8.86368C20.7066 8.59261 20.7085 8.58614 20.5877 8.31814C20.5396 8.2113 20.4526 7.98516 20.3943 7.81562C20.3361 7.64609 20.2647 7.45189 20.2356 7.38407C20.068 6.99271 20.0438 6.71676 20.0762 5.56539C20.1128 4.26522 20.1617 3.65879 20.2376 3.56176C20.2642 3.52785 20.3051 3.36898 20.3285 3.20871C20.3519 3.04844 20.3975 2.90115 20.4298 2.8814C20.462 2.86166 20.4884 2.77778 20.4884 2.69502C20.4884 2.61225 20.5134 2.54453 20.544 2.54453C20.5745 2.54453 20.617 2.47531 20.6385 2.3907C20.6599 2.3061 20.8101 2.10348 20.9722 1.94043C21.2636 1.64734 21.6151 1.49648 22.0066 1.49648C22.136 1.49648 22.1529 1.46772 22.1529 1.24738C22.1529 1.07125 22.1955 0.953426 22.2983 0.845109C22.4784 0.655331 22.9551 0.386772 23.1119 0.386772C23.1761 0.386772 23.2286 0.36552 23.2286 0.339545C23.2286 0.298082 23.7464 0.166742 24.4118 0.0394145C24.7468 -0.024674 26.4521 -0.00673948 26.8718 0.0652859C27.3534 0.147945 27.8348 0.257404 27.9927 0.320172C28.0612 0.347402 28.2233 0.415141 28.3529 0.470702C28.4825 0.526263 28.6297 0.571723 28.6799 0.571723C28.7301 0.571723 28.7712 0.59623 28.7712 0.626183C28.7712 0.656136 28.8202 0.696944 28.8802 0.716868C29.0804 0.783418 29.6485 1.19376 29.9638 1.49962C30.2567 1.78361 30.6265 2.44124 30.7422 2.88361C30.7599 2.95142 30.7975 3.06239 30.8257 3.13021C30.9596 3.45226 31.0443 4.64622 31.0443 6.21272C31.0443 7.12822 31.0303 8.01469 31.0131 8.18264C30.9831 8.47746 30.9885 8.4902 31.1688 8.55155C31.4383 8.6432 31.6264 8.88182 31.6733 9.19156C31.7183 9.48855 31.6634 10.1747 31.5774 10.3906C31.5473 10.4663 31.4745 10.6947 31.4156 10.8981C31.3567 11.1016 31.2841 11.2944 31.2542 11.3266C31.2244 11.3588 31.2 11.4467 31.2 11.5218C31.2 11.597 31.179 11.6677 31.1533 11.679C31.1276 11.6903 31.0505 11.8106 30.982 11.9462C30.8495 12.2085 30.6586 12.4031 30.5305 12.4065C30.4877 12.4076 30.4527 12.4393 30.4527 12.4769C30.4527 12.5179 30.3939 12.5306 30.3055 12.5087C30.1665 12.4741 30.1563 12.4917 30.1209 12.8257C30.0483 13.5102 29.9446 14.1046 29.8875 14.1625C29.8558 14.1947 29.8299 14.2849 29.8299 14.3629C29.8299 14.4409 29.8019 14.5047 29.7676 14.5047C29.7334 14.5047 29.7052 14.5394 29.705 14.5817C29.7044 14.687 29.3361 15.0717 29.1394 15.1722C28.9897 15.2487 28.9824 15.2729 29.0272 15.5421C29.0536 15.7005 29.0768 15.9991 29.0789 16.2056L29.0826 16.581L29.5341 16.6589C29.7824 16.7018 30.0206 16.747 30.0634 16.7594C30.1161 16.7746 30.1413 16.9211 30.1413 17.2124C30.1413 17.7414 30.2152 17.9127 30.5067 18.0592C30.6311 18.1217 30.7469 18.1874 30.7641 18.2051C30.8511 18.2952 31.1451 18.4503 31.2289 18.4503C31.2815 18.4503 31.3245 18.478 31.3245 18.5119C31.3245 18.5458 31.3518 18.5736 31.3851 18.5736C31.4371 18.5736 31.967 18.7949 32.2587 18.9384C32.36 18.9882 33.5047 19.3411 33.909 19.4471C34.046 19.483 34.2142 19.534 34.2827 19.5605C34.3512 19.587 34.5473 19.6558 34.7186 19.7135C35.162 19.8628 36.3445 20.3963 36.4312 20.4862C36.4483 20.5039 36.5413 20.5682 36.6377 20.629C36.9471 20.824 37.4797 21.3088 37.7701 21.6597C37.9294 21.8522 38.1134 22.3692 38.113 22.6235C38.113 22.7317 38.1377 22.8355 38.1684 22.8543C38.199 22.873 38.2382 22.9925 38.2554 23.1199C38.2953 23.4141 38.4094 23.8698 38.4832 24.0296C38.5145 24.0975 38.554 24.2362 38.571 24.3379C38.6332 24.711 38.742 25.1421 38.8002 25.2464C38.8331 25.3053 38.86 25.4219 38.86 25.5055C38.86 25.5891 38.886 25.7213 38.9178 25.7992C38.9496 25.8771 39.0219 26.1627 39.0786 26.434C39.1352 26.7053 39.2073 26.9754 39.2387 27.0342C39.2702 27.0931 39.2959 27.1863 39.2959 27.2412C39.2959 27.3731 39.4819 28.188 39.5478 28.3452C39.5763 28.413 39.612 28.5656 39.6273 28.6842C39.6678 28.9994 39.8021 29.6205 39.8605 29.7631C39.8882 29.8309 39.9239 29.9835 39.9396 30.1022C40.0028 30.577 40.1196 31.1879 40.1695 31.3044C40.2302 31.4462 40.2985 32.0603 40.3133 32.599L40.3235 32.9689L25.7019 32.9845L11.0804 33L11.1213 32.6762H11.121ZM40.9771 28.9814C40.9771 28.8737 40.9514 28.7003 40.9199 28.5961C40.8612 28.402 40.7373 27.8117 40.686 27.482C40.6702 27.3803 40.6347 27.2416 40.6072 27.1738C40.5796 27.106 40.5084 26.8286 40.4489 26.5573C40.3894 26.286 40.3193 26.0086 40.2933 25.9408C40.2499 25.828 40.0414 25.0168 39.9209 24.492C39.803 23.9786 39.7131 23.6524 39.6619 23.5527C39.6317 23.4938 39.607 23.3814 39.607 23.303C39.607 23.2246 39.5798 23.1334 39.5465 23.1005C39.5132 23.0675 39.4671 22.8391 39.444 22.593C39.4208 22.3468 39.378 22.1308 39.3488 22.1129C39.3195 22.095 39.2956 22.0155 39.2956 21.9362C39.2956 21.6268 38.8403 20.8984 38.3304 20.3921C38.0563 20.1201 37.7667 19.8476 37.6868 19.7866C37.4085 19.5741 36.7395 19.1901 36.6478 19.1901C36.597 19.1901 36.5555 19.1689 36.5555 19.143C36.5555 19.0935 36.1009 18.8818 35.9946 18.8818C35.9606 18.8818 35.9327 18.856 35.9327 18.8245C35.9327 18.7929 35.8697 18.7582 35.7926 18.7474C35.7025 18.7348 35.6454 18.6781 35.6326 18.589C35.6216 18.5127 35.6377 18.4503 35.6682 18.4503C35.6988 18.4503 35.7886 18.3218 35.8679 18.1647C36.0086 17.8859 36.4945 17.3406 36.6024 17.3406C36.6322 17.3406 36.7109 17.291 36.7773 17.2304C36.8437 17.1698 36.9891 17.0832 37.1004 17.038L37.3028 16.9557V16.3615C37.3028 15.696 37.2813 15.6607 36.8278 15.5797C36.6952 15.556 36.5586 15.5176 36.5243 15.4943C36.4901 15.471 36.2939 15.4017 36.0884 15.3402C35.8829 15.2788 35.6504 15.2044 35.5717 15.1748C35.493 15.1453 35.3739 15.1212 35.307 15.1212C35.2401 15.1212 35.1854 15.097 35.1854 15.0674C35.1854 15.0378 35.0793 14.9968 34.9496 14.9763C34.8199 14.9558 34.5747 14.8691 34.4047 14.7837C34.2347 14.6984 34.0605 14.6284 34.0177 14.6282C33.9749 14.6281 33.9399 14.6002 33.9399 14.5663C33.9399 14.5324 33.9649 14.5047 33.9954 14.5047C34.0259 14.5047 34.0685 14.4353 34.09 14.3505C34.1115 14.2658 34.1566 14.1964 34.1902 14.1964C34.2238 14.1964 34.2513 14.1271 34.2513 14.0423C34.2513 13.9575 34.2793 13.8882 34.3135 13.8882C34.3478 13.8882 34.3758 13.8332 34.3758 13.7661C34.3758 13.699 34.4214 13.5314 34.477 13.3937C34.5951 13.1016 34.5577 13.0172 34.3958 13.2105C34.0146 13.6661 33.3171 14.2764 33.3171 14.1544C33.3171 14.1233 33.3429 14.0714 33.3743 14.0392C33.4675 13.9438 33.9399 13.0105 33.9399 12.9217C33.9399 12.8768 33.9679 12.8401 34.0022 12.8401C34.0364 12.8401 34.0644 12.8096 34.0644 12.7724C34.0644 12.7065 34.2043 12.3625 34.318 12.1486C34.3889 12.0153 34.5028 11.5813 34.5411 11.2989C34.5572 11.1802 34.5937 11.0276 34.6223 10.9598C34.6783 10.8269 34.8029 9.9678 34.8815 9.17193C34.9083 8.90067 34.9566 8.51227 34.9888 8.30883C35.0211 8.10538 35.081 7.67537 35.1221 7.35325C35.1632 7.03113 35.2202 6.71209 35.2488 6.64427C35.2775 6.57646 35.317 6.39613 35.3368 6.24354C35.3999 5.75529 35.5266 5.14542 35.5747 5.0978C35.6004 5.07241 35.6213 4.98653 35.6213 4.90695C35.6213 4.82737 35.647 4.71409 35.6784 4.65521C35.7098 4.59633 35.8562 4.30541 36.0037 4.00872C36.1512 3.71203 36.2937 3.46928 36.3203 3.46928C36.3469 3.46928 36.3687 3.43769 36.3687 3.39908C36.3687 3.30371 37.003 2.67102 37.1004 2.66925C37.1432 2.66847 37.1782 2.64617 37.1782 2.6197C37.1782 2.59322 37.2553 2.53882 37.3495 2.49881C37.4437 2.45879 37.6718 2.34174 37.8563 2.23869C38.0409 2.13564 38.2301 2.05133 38.2767 2.05133C38.3233 2.05133 38.3615 2.02673 38.3615 1.99667C38.3615 1.96662 38.4386 1.92701 38.5328 1.90865C38.829 1.85093 39.2588 1.72926 39.4084 1.66079C39.6085 1.5692 41.209 1.57806 41.3031 1.67127C41.343 1.71077 41.4395 1.74308 41.5176 1.74308C41.6722 1.74308 42.007 1.85855 42.5201 2.08879C42.7009 2.16991 42.876 2.23628 42.9094 2.23628C42.9427 2.23628 42.9699 2.26079 42.9699 2.29074C42.9699 2.32069 43.019 2.36052 43.0789 2.37925C43.4138 2.48389 44.34 3.23597 44.34 3.40322C44.34 3.43471 44.3757 3.49714 44.4194 3.54194C44.575 3.70154 45.0827 4.80618 45.1243 5.07556C45.1476 5.22629 45.1878 5.37736 45.2137 5.41127C45.2396 5.44517 45.2758 5.59776 45.2942 5.75034C45.3125 5.90293 45.374 6.29132 45.4306 6.61344C45.5737 7.42659 45.7605 8.68138 45.8987 9.75761C46.0229 10.7256 46.1711 11.4791 46.2772 11.6833C46.3078 11.7422 46.333 11.8393 46.3332 11.8991C46.3332 11.9589 46.3755 12.0873 46.4267 12.1844C46.4778 12.2815 46.5197 12.3995 46.5197 12.4464C46.5197 12.4934 46.5477 12.5319 46.582 12.5319C46.6162 12.5319 46.6442 12.5661 46.6442 12.608C46.6442 12.6499 46.7185 12.8372 46.8093 13.0242C46.9001 13.2112 47.0472 13.5167 47.1362 13.7032C47.2253 13.8897 47.3254 14.0616 47.3586 14.0852C47.3919 14.1088 47.4015 14.1454 47.3801 14.1667C47.3199 14.2262 46.6975 13.67 46.3077 13.2084L46.1269 12.9942L46.1714 13.2408C46.2528 13.6926 46.4583 14.2293 46.5844 14.3197C46.6081 14.3367 46.6472 14.4131 46.6713 14.4896C46.7041 14.5936 46.6866 14.638 46.6018 14.6658C46.5395 14.6862 46.3674 14.7566 46.2193 14.822C46.0712 14.8875 45.8674 14.9575 45.7665 14.9775C45.6655 14.9974 45.5679 15.038 45.5494 15.0675C45.531 15.097 45.4471 15.1212 45.3631 15.1212C45.279 15.1212 45.1615 15.1466 45.1021 15.1778C44.9877 15.2376 44.1737 15.4955 43.7401 15.6093C43.3605 15.709 43.3378 15.7607 43.3847 16.4158C43.4247 16.9737 43.4305 16.9906 43.6027 17.0549C43.6999 17.0913 43.7795 17.1427 43.7795 17.1692C43.7795 17.1956 43.8094 17.2173 43.846 17.2173C43.9201 17.2173 44.303 17.4899 44.4953 17.6797C44.564 17.7475 44.6763 17.9135 44.7448 18.0486C44.8133 18.1837 44.9044 18.3314 44.9472 18.3767C44.99 18.422 45.0251 18.4807 45.0251 18.5072C45.0251 18.6211 45.4064 18.9361 45.6263 19.0037C45.8696 19.0786 46.1058 19.1759 46.547 19.3832C46.6818 19.4465 46.829 19.4983 46.8739 19.4983C46.9188 19.4983 46.9556 19.5256 46.9556 19.5588C46.9556 19.5921 47.0257 19.6367 47.1113 19.658C47.1969 19.6793 47.267 19.7175 47.267 19.7429C47.267 19.8111 47.8819 20.1148 48.0201 20.1148C48.0854 20.1148 48.1389 20.1363 48.1389 20.1625C48.1389 20.2157 48.6061 20.3518 48.9644 20.4028C49.0931 20.4211 49.2138 20.4609 49.2328 20.4913C49.2517 20.5216 49.3368 20.5464 49.422 20.5464C49.5071 20.5464 49.7647 20.5918 49.9944 20.6474C50.446 20.7565 51.0252 21.1239 51.0965 21.3463C51.1185 21.415 51.1627 21.4712 51.1946 21.4712C51.2266 21.4712 51.2527 21.5128 51.2527 21.5636C51.2527 21.6145 51.2737 21.6563 51.2994 21.6565C51.3605 21.657 51.5641 22.0122 51.5641 22.1183C51.5641 22.1636 51.5968 22.2115 51.6368 22.2247C51.7133 22.2499 51.7814 23.2636 51.8512 25.4168C51.8715 26.0441 51.9133 26.5836 51.9441 26.6159C51.9748 26.6481 52 27.2376 52 27.9259V29.1774H46.4885H40.9771V28.9814ZM0.123849 28.1638C0.123849 28.0133 0.0958246 27.8729 0.0615726 27.8519C-0.0162204 27.8044 -0.0223449 26.3273 0.0549132 26.246C0.0855033 26.2137 0.127238 25.8684 0.147655 25.4784C0.18791 24.7096 0.313673 23.7893 0.388523 23.7159C0.414212 23.6906 0.43523 23.6036 0.43523 23.5223C0.43523 23.3637 0.594048 22.8035 0.688828 22.6279C0.720608 22.569 0.746612 22.4811 0.746612 22.4326C0.746612 22.384 0.787435 22.2657 0.837331 22.1697C0.887226 22.0737 0.964126 21.905 1.00822 21.7948C1.05232 21.6846 1.10461 21.5945 1.12443 21.5945C1.14425 21.5945 1.22494 21.4666 1.30375 21.3104C1.48385 20.9534 2.25391 20.1761 2.58376 20.0182C2.72077 19.9527 2.84221 19.8783 2.85362 19.8528C2.86504 19.8274 2.90021 19.8066 2.93177 19.8066C2.96334 19.8066 3.1344 19.7372 3.3119 19.6525C3.4894 19.5677 3.67142 19.4983 3.71639 19.4983C3.76136 19.4983 3.79815 19.4709 3.79815 19.4374C3.79815 19.4039 3.91087 19.3587 4.04863 19.3368C4.1864 19.315 4.31417 19.2731 4.33255 19.2436C4.35094 19.2142 4.42076 19.1901 4.48771 19.1901C4.55466 19.1901 4.65809 19.1658 4.71757 19.1361C4.77704 19.1064 4.99385 19.032 5.19937 18.9707C5.40488 18.9094 5.60105 18.8424 5.6353 18.8218C5.66955 18.8012 5.85872 18.7325 6.05567 18.669C6.25261 18.6055 6.41375 18.5303 6.41375 18.5019C6.41375 18.4735 6.47681 18.4494 6.55388 18.4483C6.63094 18.4473 6.74839 18.4056 6.81488 18.3559C6.88137 18.3061 6.98646 18.2653 7.04842 18.2653C7.11038 18.2653 7.16107 18.2376 7.16107 18.2037C7.16107 18.1698 7.20349 18.142 7.25533 18.142C7.30717 18.142 7.39825 18.1156 7.45773 18.0834C7.5172 18.0511 7.67796 17.9763 7.81497 17.917C7.95198 17.8578 8.07809 17.7933 8.09521 17.7736C8.11234 17.754 8.25246 17.684 8.40659 17.618C8.56073 17.5521 8.70085 17.4835 8.71797 17.4656C8.75854 17.4232 9.40201 17.1152 9.54313 17.0706C9.60307 17.0517 9.65212 16.9798 9.65212 16.911C9.65212 16.8421 9.67732 16.7857 9.70812 16.7857C9.73892 16.7857 9.77917 16.6678 9.79754 16.5237C9.81592 16.3796 9.87653 16.0398 9.93224 15.7685C10.1163 14.8723 10.1161 14.8992 9.9387 14.7097C9.84959 14.6146 9.77667 14.5018 9.77667 14.4591C9.77667 14.4163 9.75168 14.3814 9.72114 14.3814C9.69061 14.3814 9.64804 14.312 9.62655 14.2272C9.60506 14.1425 9.55998 14.0731 9.52639 14.0731C9.49279 14.0731 9.46529 14.0315 9.46529 13.9806C9.46529 13.9298 9.43726 13.8882 9.40301 13.8882C9.36876 13.8882 9.34073 13.8439 9.34073 13.7898C9.34073 13.7357 9.30115 13.6178 9.25276 13.5278C9.08515 13.216 8.89969 12.7686 8.86315 12.5877C8.84296 12.4878 8.80204 12.3911 8.77221 12.3728C8.74238 12.3546 8.71797 12.2693 8.71797 12.1832C8.71797 12.0972 8.67395 11.8769 8.62015 11.6937C8.53141 11.3915 8.50586 11.3605 8.34544 11.3605C8.15134 11.3605 7.86706 11.0835 7.81861 10.8471C7.70248 10.2807 7.65329 9.80377 7.64165 9.13159C7.62712 8.29287 7.63022 8.28381 8.00864 8.05767C8.1068 7.99901 8.11016 7.96936 8.03817 7.7973C7.92379 7.52395 7.90557 4.80416 8.01737 4.69322C8.06018 4.65074 8.09521 4.5686 8.09521 4.5107C8.09521 4.136 8.94788 3.10082 9.51199 2.79065C9.65757 2.71061 9.77667 2.6255 9.77667 2.60151C9.77667 2.57752 9.84673 2.54049 9.93236 2.51921C10.018 2.49794 10.088 2.45332 10.088 2.42006C10.088 2.38679 10.1301 2.35958 10.1815 2.35958C10.2328 2.35958 10.2749 2.33371 10.2749 2.30208C10.2749 2.27046 10.326 2.22853 10.3885 2.2089C10.4509 2.18928 10.5569 2.12499 10.6239 2.06604C10.6909 2.00708 10.8429 1.90476 10.9618 1.83864C11.0806 1.77252 11.2339 1.66622 11.3024 1.60241C11.3709 1.5386 11.476 1.45995 11.536 1.42762C11.6325 1.37557 11.645 1.40086 11.645 1.64843C11.645 1.80221 11.6593 1.92803 11.6768 1.92803C11.6943 1.92803 12.0051 1.63458 12.3674 1.27592C12.7297 0.917262 13.0435 0.641026 13.0648 0.662062C13.086 0.683099 13.1105 0.87923 13.1191 1.09791C13.1277 1.31659 13.1706 1.55815 13.2146 1.63471L13.2944 1.7739L13.3146 1.60436C13.3377 1.4095 13.4522 1.38799 13.7228 1.52768C13.8209 1.57833 13.94 1.61978 13.9874 1.61978C14.0349 1.61978 14.0737 1.64141 14.0737 1.66785C14.0737 1.6943 14.2139 1.76976 14.3851 1.83555C14.5564 1.90134 14.6965 1.97059 14.6965 1.98943C14.6965 2.00828 14.8223 2.07846 14.9762 2.1454C15.13 2.21234 15.2561 2.28791 15.2564 2.31334C15.2564 2.33877 15.2857 2.35958 15.3208 2.35958C15.3999 2.35958 16.2145 2.86151 16.243 2.92782C16.2544 2.95436 16.2985 2.97608 16.341 2.97608C16.4782 2.97608 17.1716 3.695 17.2924 3.96249C17.3154 4.01335 17.3504 4.06883 17.3703 4.08579C17.4465 4.15064 17.6241 4.74208 17.6238 4.92984C17.6238 5.03804 17.6552 5.14596 17.6939 5.16967C17.7631 5.21199 17.7444 6.18608 17.6483 7.5382L17.6111 8.06223L17.8353 8.17982C17.9585 8.2445 18.0594 8.33466 18.0594 8.38018C18.0594 8.42571 18.0843 8.46295 18.1146 8.46295C18.2146 8.46295 18.2437 8.97532 18.1863 9.72678C18.1552 10.1337 18.1109 10.556 18.0878 10.6653C18.0376 10.9028 17.7802 11.1756 17.6063 11.1756C17.4527 11.1756 17.3167 11.343 17.3141 11.5353C17.3113 11.7332 17.1051 12.4963 17.0475 12.5216C17.0218 12.5329 17.0007 12.6039 17.0007 12.6793C17.0007 12.7548 16.9596 12.8704 16.9093 12.9362C16.859 13.002 16.817 13.0883 16.8159 13.1279C16.8108 13.3117 16.1701 14.2776 15.7089 14.7966C15.61 14.9079 15.5921 14.9969 15.6159 15.259C15.632 15.4375 15.67 15.6099 15.7002 15.6421C15.7305 15.6743 15.7552 15.7972 15.7552 15.9151C15.7552 16.033 15.8014 16.3261 15.8579 16.5663L15.9605 17.0032L16.8387 17.432C17.3217 17.6679 17.8104 17.9145 17.9246 17.9799L18.1324 18.0988L17.8935 18.1861C17.7621 18.2341 17.6056 18.2887 17.5456 18.3074C17.4857 18.3261 17.4367 18.3659 17.4367 18.3958C17.4367 18.4258 17.3666 18.4503 17.281 18.4503C17.1953 18.4503 17.1253 18.478 17.1253 18.5119C17.1253 18.5458 17.0902 18.5742 17.0474 18.575C17.0046 18.5757 16.8014 18.6583 16.5959 18.7585C16.3904 18.8587 16.1872 18.9413 16.1444 18.9421C16.1016 18.9429 16.0666 18.9645 16.0666 18.9901C16.0666 19.0157 15.9755 19.075 15.8642 19.1218C15.7529 19.1686 15.4873 19.3141 15.2741 19.4451C15.0608 19.5761 14.8682 19.6833 14.8461 19.6833C14.802 19.6833 14.1254 20.1555 13.9059 20.3394C13.8308 20.4024 13.6907 20.5157 13.5946 20.5912C13.2754 20.8419 13.0476 21.0669 12.7661 21.4095C12.6128 21.596 12.473 21.7624 12.4554 21.7794C12.4378 21.7964 12.3929 21.8657 12.3555 21.9335C12.3182 22.0013 12.2143 22.1875 12.1246 22.3472C11.9212 22.7096 11.645 23.4924 11.645 23.7066C11.645 23.7951 11.6175 23.939 11.5839 24.0264C11.5503 24.1139 11.4917 24.3584 11.4537 24.5699C11.3783 24.9894 11.3287 25.2237 11.1768 25.8791C11.1218 26.1165 11.0522 26.4217 11.0222 26.5573C10.9922 26.6929 10.9224 26.9981 10.8671 27.2354C10.8118 27.4728 10.744 27.7918 10.7164 27.9444C10.6171 28.4941 11.2312 28.4376 5.34839 28.4376H0.123849V28.1638Z" fill="#F88500"/>
</svg>
