<svg width="39" height="39" viewBox="0 0 39 39" fill="none" xmlns="http://www.w3.org/2000/svg">
<path d="M19.5 0C15.7207 0 12.0548 1.08278 8.89825 3.1312C8.55342 3.35499 8.45538 3.81583 8.6791 4.16066C8.90289 4.50549 9.36373 4.60345 9.70856 4.37981C12.6232 2.48838 16.009 1.48855 19.5 1.48855C29.4315 1.48855 37.5114 9.56848 37.5114 19.5C37.5114 29.4315 29.4315 37.5114 19.5 37.5114C9.56848 37.5114 1.48855 29.4315 1.48855 19.5C1.48855 14.4356 3.63942 9.57602 7.38959 6.16756C7.69374 5.89106 7.71613 5.42039 7.43971 5.11616C7.1632 4.81193 6.69254 4.78946 6.38831 5.06604C2.3285 8.75603 0 14.017 0 19.5C0 30.2524 8.74758 39 19.5 39C30.2524 39 39 30.2524 39 19.5C39 8.74758 30.2524 0 19.5 0Z" fill="#F88500"/>
<path d="M32.7476 10.6548C32.5192 10.3133 32.0568 10.2213 31.7153 10.4501C31.3736 10.6785 31.2819 11.1409 31.5105 11.4824C33.0993 13.8575 33.9391 16.6298 33.9391 19.5C33.9391 27.4616 27.4619 33.9389 19.5002 33.9389C11.5386 33.9389 5.0613 27.4616 5.0613 19.5C5.0613 11.5383 11.5386 5.06106 19.5002 5.06106C23.2982 5.06106 26.8845 6.52371 29.5985 9.1796C29.8923 9.46722 30.3636 9.46204 30.6509 9.16825C30.9386 8.87453 30.9334 8.40325 30.6396 8.11578C27.6457 5.18598 23.6898 3.57251 19.5002 3.57251C10.7178 3.57251 3.57275 10.7175 3.57275 19.5C3.57275 28.2824 10.7178 35.4274 19.5002 35.4274C28.2827 35.4274 35.4277 28.2824 35.4277 19.5C35.4277 16.3342 34.5009 13.2754 32.7476 10.6548Z" fill="#F88500"/>
<path d="M19.5 8.13745C17.0473 8.13745 14.7118 8.90663 12.7458 10.362C12.4154 10.6066 12.3459 11.0726 12.5904 11.4029C12.8352 11.7336 13.3012 11.803 13.6314 11.5583C15.3392 10.2942 17.3685 9.626 19.5 9.626C24.9445 9.626 29.374 14.0555 29.374 19.5C29.374 24.0411 26.3015 27.9806 21.9023 29.0798C21.5035 29.1795 21.261 29.5836 21.3606 29.9824C21.4452 30.3207 21.7487 30.5465 22.0822 30.5465C22.1419 30.5465 22.2027 30.5392 22.2634 30.5241C27.3264 29.2588 30.8626 24.7255 30.8626 19.5C30.8626 13.2346 25.7654 8.13745 19.5 8.13745Z" fill="#F88500"/>
<path d="M13.2542 27.1478C10.9485 25.2624 9.62625 22.4749 9.62625 19.5C9.62625 17.4413 10.2532 15.4688 11.4395 13.7958C11.6773 13.4605 11.5982 12.996 11.2629 12.7582C10.9276 12.5203 10.463 12.5996 10.2253 12.9349C8.8595 14.8609 8.1377 17.1311 8.1377 19.5C8.1377 22.9232 9.65908 26.1307 12.3119 28.3001C12.4502 28.4131 12.617 28.4682 12.7827 28.4682C12.9982 28.4682 13.212 28.3751 13.3592 28.1951C13.6194 27.8768 13.5723 27.4079 13.2542 27.1478Z" fill="#F88500"/>
<path d="M25.9502 18.7557C25.539 18.7557 25.2059 19.0888 25.2059 19.5C25.2059 22.6464 22.6463 25.2061 19.4998 25.2061C16.3534 25.2061 13.7937 22.6464 13.7937 19.5C13.7937 16.3535 16.3534 13.7938 19.4998 13.7938C19.911 13.7938 20.2441 13.4607 20.2441 13.0496C20.2441 12.6385 19.911 12.3053 19.4998 12.3053C15.5327 12.3053 12.3052 15.5328 12.3052 19.5C12.3052 23.4671 15.5327 26.6946 19.4998 26.6946C23.467 26.6946 26.6945 23.4671 26.6945 19.5C26.6945 19.0888 26.3613 18.7557 25.9502 18.7557Z" fill="#F88500"/>
<path d="M19.4998 16.4733C17.831 16.4733 16.4731 17.8311 16.4731 19.5C16.4731 21.1688 17.831 22.5266 19.4998 22.5266C21.1687 22.5266 22.5265 21.1688 22.5265 19.5C22.5265 17.8311 21.1687 16.4733 19.4998 16.4733ZM19.4998 21.0381C18.6517 21.0381 17.9617 20.3481 17.9617 19.5C17.9617 18.6518 18.6517 17.9618 19.4998 17.9618C20.348 17.9618 21.038 18.6518 21.038 19.5C21.038 20.3481 20.348 21.0381 19.4998 21.0381Z" fill="#F88500"/>
</svg>
