<svg width="12" height="15" viewBox="0 0 12 15" fill="none" xmlns="http://www.w3.org/2000/svg">
<path d="M5.58185 2C3.60681 2 2 3.60681 2 5.58185C2 5.74935 2.08028 6.70709 3.66521 9.1193C4.30364 10.091 5.02089 11.0469 5.63197 11.8285C6.05219 11.2857 6.52219 10.652 6.98299 9.97959C9.10251 6.88689 9.1637 5.70629 9.1637 5.58185C9.1637 3.60681 7.55689 2 5.58185 2ZM5.58185 0C8.66462 0 11.1637 2.49908 11.1637 5.58185C11.1637 8.63056 5.67578 15 5.58291 15C5.58188 15 5.58153 14.9992 5.58185 14.9976C5.6112 14.8532 0 8.66462 0 5.58185C0 2.49908 2.49908 0 5.58185 0Z" fill="#F88500"/>
</svg>
